<svg width="32" height="32" viewBox="0 0 32 32" fill="none" xmlns="http://www.w3.org/2000/svg">
<path fill-rule="evenodd" clip-rule="evenodd" d="M2.66666 8C2.66666 6.58551 3.22857 5.22896 4.22876 4.22877C5.22896 3.22857 6.58551 2.66667 8 2.66667H24C25.4145 2.66667 26.771 3.22857 27.7712 4.22877C28.7714 5.22896 29.3333 6.58551 29.3333 8V24C29.3333 25.4145 28.7714 26.771 27.7712 27.7712C26.771 28.7714 25.4145 29.3333 24 29.3333H8C6.58551 29.3333 5.22896 28.7714 4.22876 27.7712C3.22857 26.771 2.66666 25.4145 2.66666 24V8ZM8 5.33333C7.29275 5.33333 6.61448 5.61429 6.11438 6.11438C5.61428 6.61448 5.33333 7.29276 5.33333 8V24C5.33333 24.7072 5.61428 25.3855 6.11438 25.8856C6.61448 26.3857 7.29275 26.6667 8 26.6667H16V17.3333H14.6667C14.313 17.3333 13.9739 17.1929 13.7239 16.9428C13.4738 16.6928 13.3333 16.3536 13.3333 16C13.3333 15.6464 13.4738 15.3072 13.7239 15.0572C13.9739 14.8071 14.313 14.6667 14.6667 14.6667H16V12.6667C16 11.429 16.4917 10.242 17.3668 9.36684C18.242 8.49167 19.429 8 20.6667 8H21.4667C21.8203 8 22.1594 8.14048 22.4095 8.39053C22.6595 8.64057 22.8 8.97971 22.8 9.33333C22.8 9.68696 22.6595 10.0261 22.4095 10.2761C22.1594 10.5262 21.8203 10.6667 21.4667 10.6667H20.6667C20.404 10.6667 20.1439 10.7184 19.9013 10.8189C19.6586 10.9194 19.4382 11.0667 19.2525 11.2525C19.0667 11.4382 18.9194 11.6587 18.8189 11.9013C18.7184 12.144 18.6667 12.404 18.6667 12.6667V14.6667H21.4667C21.8203 14.6667 22.1594 14.8071 22.4095 15.0572C22.6595 15.3072 22.8 15.6464 22.8 16C22.8 16.3536 22.6595 16.6928 22.4095 16.9428C22.1594 17.1929 21.8203 17.3333 21.4667 17.3333H18.6667V26.6667H24C24.7072 26.6667 25.3855 26.3857 25.8856 25.8856C26.3857 25.3855 26.6667 24.7072 26.6667 24V8C26.6667 7.29276 26.3857 6.61448 25.8856 6.11438C25.3855 5.61429 24.7072 5.33333 24 5.33333H8Z" fill="black"/>
</svg>
