<svg width="32" height="32" viewBox="0 0 32 32" fill="none" xmlns="http://www.w3.org/2000/svg">
<path fill-rule="evenodd" clip-rule="evenodd" d="M2.66666 8C2.66666 6.58551 3.22857 5.22896 4.22876 4.22877C5.22896 3.22857 6.58551 2.66667 8 2.66667H24C25.4145 2.66667 26.771 3.22857 27.7712 4.22877C28.7714 5.22896 29.3333 6.58551 29.3333 8V24C29.3333 25.4145 28.7714 26.771 27.7712 27.7712C26.771 28.7714 25.4145 29.3333 24 29.3333H8C6.58551 29.3333 5.22896 28.7714 4.22876 27.7712C3.22857 26.771 2.66666 25.4145 2.66666 24V8ZM8 5.33333C7.29275 5.33333 6.61448 5.61429 6.11438 6.11438C5.61428 6.61448 5.33333 7.29276 5.33333 8V24C5.33333 24.7072 5.61428 25.3855 6.11438 25.8856C6.61448 26.3857 7.29275 26.6667 8 26.6667H24C24.7072 26.6667 25.3855 26.3857 25.8856 25.8856C26.3857 25.3855 26.6667 24.7072 26.6667 24V8C26.6667 7.29276 26.3857 6.61448 25.8856 6.11438C25.3855 5.61429 24.7072 5.33333 24 5.33333H8ZM16 12C14.9391 12 13.9217 12.4214 13.1716 13.1716C12.4214 13.9217 12 14.9391 12 16C12 17.0609 12.4214 18.0783 13.1716 18.8284C13.9217 19.5786 14.9391 20 16 20C17.0609 20 18.0783 19.5786 18.8284 18.8284C19.5786 18.0783 20 17.0609 20 16C20 14.9391 19.5786 13.9217 18.8284 13.1716C18.0783 12.4214 17.0609 12 16 12ZM9.33333 16C9.33333 14.2319 10.0357 12.5362 11.286 11.286C12.5362 10.0357 14.2319 9.33333 16 9.33333C17.7681 9.33333 19.4638 10.0357 20.714 11.286C21.9643 12.5362 22.6667 14.2319 22.6667 16C22.6667 17.7681 21.9643 19.4638 20.714 20.714C19.4638 21.9643 17.7681 22.6667 16 22.6667C14.2319 22.6667 12.5362 21.9643 11.286 20.714C10.0357 19.4638 9.33333 17.7681 9.33333 16ZM23.3333 10.6667C23.8638 10.6667 24.3725 10.456 24.7475 10.0809C25.1226 9.70581 25.3333 9.1971 25.3333 8.66667C25.3333 8.13624 25.1226 7.62753 24.7475 7.25245C24.3725 6.87738 23.8638 6.66667 23.3333 6.66667C22.8029 6.66667 22.2942 6.87738 21.9191 7.25245C21.544 7.62753 21.3333 8.13624 21.3333 8.66667C21.3333 9.1971 21.544 9.70581 21.9191 10.0809C22.2942 10.456 22.8029 10.6667 23.3333 10.6667Z" fill="black"/>
</svg>
