<svg width="32" height="32" viewBox="0 0 32 32" fill="none" xmlns="http://www.w3.org/2000/svg">
<path fill-rule="evenodd" clip-rule="evenodd" d="M19.7987 7.544C19.1895 7.54375 18.588 7.67874 18.0373 7.93922C17.4867 8.19971 17.0008 8.5792 16.6147 9.05029C16.2285 9.52139 15.9518 10.0723 15.8045 10.6634C15.6571 11.2544 15.6429 11.8708 15.7627 12.468C15.8039 12.6749 15.7955 12.8887 15.738 13.0917C15.6806 13.2948 15.5757 13.4813 15.4322 13.6359C15.2886 13.7905 15.1104 13.9089 14.9122 13.9812C14.714 14.0535 14.5014 14.0778 14.292 14.052C11.425 13.6998 8.7223 12.5213 6.51334 10.66C6.55467 11.4627 6.83334 12.316 7.43734 13.2093L8.34267 14.548L6.856 15.1813L6.56934 15.304C6.78267 15.548 7.03867 15.7973 7.32534 16.044C7.70856 16.372 8.11397 16.6732 8.53867 16.9453L8.55334 16.9547H8.55467L10.6187 18.2067L8.45867 19.2867C8.352 19.34 8.24534 19.388 8.13867 19.4307C8.60312 19.8166 9.11479 20.1419 9.66134 20.3987L11.5147 21.2747L9.96267 22.6133C9.116 23.344 8.264 23.8893 7.15867 24.1773C8.85392 25.0803 10.7459 25.5507 12.6667 25.5467C19.0747 25.5467 24.2347 20.4333 24.2347 14.168V13.4747L24.8013 13.076C25.6867 12.4547 26.312 11.6147 26.76 10.6533H23.88L23.5173 9.89334C23.1834 9.19023 22.6568 8.59627 21.9988 8.18042C21.3408 7.76457 20.5784 7.54389 19.8 7.544H19.7987ZM4.75867 17.2773C4.63285 17.4214 4.53951 17.5909 4.48498 17.7743C4.43046 17.9576 4.41603 18.1506 4.44267 18.34C4.59334 19.408 5.232 20.328 5.93867 21.0307C6.13067 21.2213 6.336 21.404 6.552 21.5787L6.452 21.6053C5.81067 21.7653 4.94534 21.7987 3.504 21.6587C3.23182 21.632 2.958 21.6896 2.71968 21.8238C2.48135 21.9579 2.29006 22.1622 2.17172 22.4087C2.05339 22.6553 2.01374 22.9323 2.05815 23.2022C2.10256 23.472 2.22889 23.7217 2.42 23.9173C3.75437 25.2812 5.34839 26.364 7.10803 27.1019C8.86767 27.8397 10.7573 28.2176 12.6653 28.2133C20.2827 28.2133 26.5307 22.2987 26.884 14.8347C28.604 13.3907 29.464 11.4347 29.928 9.65734C29.9796 9.46007 29.9852 9.2536 29.9445 9.05381C29.9038 8.85401 29.8178 8.66621 29.6932 8.50486C29.5685 8.3435 29.4085 8.21288 29.2255 8.12305C29.0424 8.03322 28.8412 7.98656 28.6373 7.98667H25.5C24.7326 6.7951 23.6111 5.87392 22.2932 5.35258C20.9753 4.83124 19.5271 4.73593 18.1522 5.08006C16.7773 5.42419 15.5448 6.19045 14.6278 7.27117C13.7109 8.35189 13.1556 9.69275 13.04 11.1053C10.5822 10.4655 8.38311 9.07974 6.74534 7.13867C6.6003 6.96718 6.41428 6.83511 6.20456 6.75471C5.99484 6.67431 5.76821 6.6482 5.5457 6.67879C5.32319 6.70938 5.11201 6.79568 4.93177 6.92969C4.75153 7.0637 4.60805 7.24107 4.51467 7.44534C3.70667 9.208 3.552 11.24 4.45334 13.3067L4.14134 13.44C3.84277 13.5672 3.60085 13.799 3.46094 14.0918C3.32103 14.3846 3.29273 14.7185 3.38134 15.0307C3.62934 15.9 4.18667 16.668 4.75734 17.2773H4.75867Z" fill="black"/>
</svg>
